<svg
  width="16"
  height="16"
  viewBox="0 0 16 16"
  fill="none"
  xmlns="http://www.w3.org/2000/svg"
>
<path
    fill-rule="evenodd"
    clip-rule="evenodd"
    d="M1.33337 1.99998C1.33337 1.63179 1.63185 1.33331 2.00004 1.33331H6.66671C7.0349 1.33331 7.33337 1.63179 7.33337 1.99998V6.66665C7.33337 7.03484 7.0349 7.33331 6.66671 7.33331H2.00004C1.63185 7.33331 1.33337 7.03484 1.33337 6.66665V1.99998ZM2.66671 2.66665V5.99998H6.00004V2.66665H2.66671Z"
    fill="#808A98"
  />
<path
    fill-rule="evenodd"
    clip-rule="evenodd"
    d="M8.66663 1.99998C8.66663 1.63179 8.9651 1.33331 9.33329 1.33331H14C14.3681 1.33331 14.6666 1.63179 14.6666 1.99998V6.66665C14.6666 7.03484 14.3681 7.33331 14 7.33331H9.33329C8.9651 7.33331 8.66663 7.03484 8.66663 6.66665V1.99998ZM9.99996 2.66665V5.99998H13.3333V2.66665H9.99996Z"
    fill="#808A98"
  />
<path
    fill-rule="evenodd"
    clip-rule="evenodd"
    d="M8.66663 9.33335C8.66663 8.96516 8.9651 8.66669 9.33329 8.66669H14C14.3681 8.66669 14.6666 8.96516 14.6666 9.33335V14C14.6666 14.3682 14.3681 14.6667 14 14.6667H9.33329C8.9651 14.6667 8.66663 14.3682 8.66663 14V9.33335ZM9.99996 10V13.3334H13.3333V10H9.99996Z"
    fill="#808A98"
  />
<path
    fill-rule="evenodd"
    clip-rule="evenodd"
    d="M1.33337 9.33335C1.33337 8.96516 1.63185 8.66669 2.00004 8.66669H6.66671C7.0349 8.66669 7.33337 8.96516 7.33337 9.33335V14C7.33337 14.3682 7.0349 14.6667 6.66671 14.6667H2.00004C1.63185 14.6667 1.33337 14.3682 1.33337 14V9.33335ZM2.66671 10V13.3334H6.00004V10H2.66671Z"
    fill="#808A98"
  />
</svg>
