<svg width="16" height="16" viewBox="0 0 16 16" fill="none" xmlns="http://www.w3.org/2000/svg">
<path fill-rule="evenodd" clip-rule="evenodd" d="M2.66667 8.66668C3.03486 8.66668 3.33333 8.96515 3.33333 9.33334V14C3.33333 14.3682 3.03486 14.6667 2.66667 14.6667C2.29848 14.6667 2 14.3682 2 14V9.33334C2 8.96515 2.29848 8.66668 2.66667 8.66668Z" fill="#808A98"/>
<path fill-rule="evenodd" clip-rule="evenodd" d="M2.66667 1.33334C3.03486 1.33334 3.33333 1.63182 3.33333 2.00001V6.66668C3.33333 7.03487 3.03486 7.33334 2.66667 7.33334C2.29848 7.33334 2 7.03487 2 6.66668V2.00001C2 1.63182 2.29848 1.33334 2.66667 1.33334Z" fill="#808A98"/>
<path fill-rule="evenodd" clip-rule="evenodd" d="M8 7.33334C8.36819 7.33334 8.66667 7.63182 8.66667 8.00001V14C8.66667 14.3682 8.36819 14.6667 8 14.6667C7.63181 14.6667 7.33333 14.3682 7.33333 14V8.00001C7.33333 7.63182 7.63181 7.33334 8 7.33334Z" fill="#808A98"/>
<path fill-rule="evenodd" clip-rule="evenodd" d="M8 1.33334C8.36819 1.33334 8.66667 1.63182 8.66667 2.00001V5.33334C8.66667 5.70153 8.36819 6.00001 8 6.00001C7.63181 6.00001 7.33333 5.70153 7.33333 5.33334V2.00001C7.33333 1.63182 7.63181 1.33334 8 1.33334Z" fill="#808A98"/>
<path fill-rule="evenodd" clip-rule="evenodd" d="M13.3333 10C13.7015 10 14 10.2985 14 10.6667V14C14 14.3682 13.7015 14.6667 13.3333 14.6667C12.9651 14.6667 12.6667 14.3682 12.6667 14V10.6667C12.6667 10.2985 12.9651 10 13.3333 10Z" fill="#808A98"/>
<path fill-rule="evenodd" clip-rule="evenodd" d="M13.3333 1.33334C13.7015 1.33334 14 1.63182 14 2.00001V8.00001C14 8.3682 13.7015 8.66668 13.3333 8.66668C12.9651 8.66668 12.6667 8.3682 12.6667 8.00001V2.00001C12.6667 1.63182 12.9651 1.33334 13.3333 1.33334Z" fill="#808A98"/>
<path fill-rule="evenodd" clip-rule="evenodd" d="M0 9.33334C0 8.96515 0.298477 8.66668 0.666667 8.66668H4.66667C5.03486 8.66668 5.33333 8.96515 5.33333 9.33334C5.33333 9.70153 5.03486 10 4.66667 10H0.666667C0.298477 10 0 9.70153 0 9.33334Z" fill="#808A98"/>
<path fill-rule="evenodd" clip-rule="evenodd" d="M5.33333 5.33334C5.33333 4.96515 5.63181 4.66668 6 4.66668H10C10.3682 4.66668 10.6667 4.96515 10.6667 5.33334C10.6667 5.70153 10.3682 6.00001 10 6.00001H6C5.63181 6.00001 5.33333 5.70153 5.33333 5.33334Z" fill="#808A98"/>
<path fill-rule="evenodd" clip-rule="evenodd" d="M10.6667 10.6667C10.6667 10.2985 10.9651 10 11.3333 10H15.3333C15.7015 10 16 10.2985 16 10.6667C16 11.0349 15.7015 11.3333 15.3333 11.3333H11.3333C10.9651 11.3333 10.6667 11.0349 10.6667 10.6667Z" fill="#808A98"/>
</svg>
