<svg
  width="16"
  height="16"
  viewBox="0 0 16 16"
  fill="none"
  xmlns="http://www.w3.org/2000/svg"
>
<path
    fill-rule="evenodd"
    clip-rule="evenodd"
    d="M0 1.99998C0 1.63179 0.298477 1.33331 0.666667 1.33331H10.6667C11.0349 1.33331 11.3333 1.63179 11.3333 1.99998V10.6666C11.3333 11.0348 11.0349 11.3333 10.6667 11.3333H0.666667C0.298477 11.3333 0 11.0348 0 10.6666V1.99998ZM1.33333 2.66665V9.99998H10V2.66665H1.33333Z"
    fill="#808A98"
  />
<path
    fill-rule="evenodd"
    clip-rule="evenodd"
    d="M10 5.33331C10 4.96512 10.2985 4.66665 10.6667 4.66665H13.3333C13.5101 4.66665 13.6797 4.73688 13.8047 4.86191L15.8047 6.86191C15.9298 6.98693 16 7.1565 16 7.33331V10.6666C16 11.0348 15.7015 11.3333 15.3333 11.3333H10.6667C10.2985 11.3333 10 11.0348 10 10.6666V5.33331ZM11.3333 5.99998V9.99998H14.6667V7.60946L13.0572 5.99998H11.3333Z"
    fill="#808A98"
  />
<path
    fill-rule="evenodd"
    clip-rule="evenodd"
    d="M3.66667 11.3333C3.11438 11.3333 2.66667 11.781 2.66667 12.3333C2.66667 12.8856 3.11438 13.3333 3.66667 13.3333C4.21895 13.3333 4.66667 12.8856 4.66667 12.3333C4.66667 11.781 4.21895 11.3333 3.66667 11.3333ZM1.33333 12.3333C1.33333 11.0446 2.378 9.99998 3.66667 9.99998C4.95533 9.99998 6 11.0446 6 12.3333C6 13.622 4.95533 14.6666 3.66667 14.6666C2.378 14.6666 1.33333 13.622 1.33333 12.3333Z"
    fill="#808A98"
  />
<path
    fill-rule="evenodd"
    clip-rule="evenodd"
    d="M12.3333 11.3333C11.781 11.3333 11.3333 11.781 11.3333 12.3333C11.3333 12.8856 11.781 13.3333 12.3333 13.3333C12.8856 13.3333 13.3333 12.8856 13.3333 12.3333C13.3333 11.781 12.8856 11.3333 12.3333 11.3333ZM10 12.3333C10 11.0446 11.0447 9.99998 12.3333 9.99998C13.622 9.99998 14.6667 11.0446 14.6667 12.3333C14.6667 13.622 13.622 14.6666 12.3333 14.6666C11.0447 14.6666 10 13.622 10 12.3333Z"
    fill="#808A98"
  />
</svg>
