<svg
  width="17"
  height="16"
  viewBox="0 0 17 16"
  fill="none"
  xmlns="http://www.w3.org/2000/svg"
>
<g clip-path="url(#clip0_59_2181)">
<path
      fill-rule="evenodd"
      clip-rule="evenodd"
      d="M1.47631 10.3097C2.10143 9.68453 2.94928 9.33334 3.83333 9.33334H9.16667C10.0507 9.33334 10.8986 9.68453 11.5237 10.3097C12.1488 10.9348 12.5 11.7826 12.5 12.6667V14C12.5 14.3682 12.2015 14.6667 11.8333 14.6667C11.4651 14.6667 11.1667 14.3682 11.1667 14V12.6667C11.1667 12.1362 10.956 11.6275 10.5809 11.2525C10.2058 10.8774 9.6971 10.6667 9.16667 10.6667H3.83333C3.3029 10.6667 2.79419 10.8774 2.41912 11.2525C2.04405 11.6275 1.83333 12.1362 1.83333 12.6667V14C1.83333 14.3682 1.53486 14.6667 1.16667 14.6667C0.798477 14.6667 0.5 14.3682 0.5 14V12.6667C0.5 11.7826 0.85119 10.9348 1.47631 10.3097Z"
      fill="black"
    />
<path
      fill-rule="evenodd"
      clip-rule="evenodd"
      d="M6.49984 2.66668C5.39527 2.66668 4.49984 3.56211 4.49984 4.66668C4.49984 5.77125 5.39527 6.66668 6.49984 6.66668C7.60441 6.66668 8.49984 5.77125 8.49984 4.66668C8.49984 3.56211 7.60441 2.66668 6.49984 2.66668ZM3.1665 4.66668C3.1665 2.82573 4.65889 1.33334 6.49984 1.33334C8.34079 1.33334 9.83317 2.82573 9.83317 4.66668C9.83317 6.50763 8.34079 8.00001 6.49984 8.00001C4.65889 8.00001 3.1665 6.50763 3.1665 4.66668Z"
      fill="black"
    />
<path
      fill-rule="evenodd"
      clip-rule="evenodd"
      d="M13.1878 9.91999C13.2799 9.56349 13.6435 9.34911 14 9.44116C14.7151 9.6258 15.3486 10.0427 15.8011 10.6264C16.2536 11.2101 16.4994 11.9276 16.5 12.6662L16.5 14C16.5 14.3682 16.2015 14.6667 15.8333 14.6667C15.4651 14.6667 15.1667 14.3682 15.1667 14L15.1667 12.6672C15.1667 12.6671 15.1667 12.6672 15.1667 12.6672C15.1663 12.2241 15.0188 11.7935 14.7473 11.4433C14.4759 11.0931 14.0957 10.8429 13.6667 10.7322C13.3102 10.6401 13.0958 10.2765 13.1878 9.91999Z"
      fill="black"
    />
<path
      fill-rule="evenodd"
      clip-rule="evenodd"
      d="M10.521 1.9213C10.6123 1.56461 10.9755 1.3495 11.3322 1.44082C12.0492 1.62441 12.6847 2.04141 13.1386 2.62608C13.5924 3.21076 13.8387 3.92985 13.8387 4.66999C13.8387 5.41013 13.5924 6.12922 13.1386 6.7139C12.6847 7.29857 12.0492 7.71557 11.3322 7.89916C10.9755 7.99048 10.6123 7.77537 10.521 7.41868C10.4297 7.062 10.6448 6.69882 11.0015 6.60749C11.4317 6.49734 11.813 6.24714 12.0853 5.89634C12.3576 5.54553 12.5054 5.11408 12.5054 4.66999C12.5054 4.22591 12.3576 3.79445 12.0853 3.44365C11.813 3.09284 11.4317 2.84264 11.0015 2.73249C10.6448 2.64117 10.4297 2.27798 10.521 1.9213Z"
      fill="black"
    />
</g>
<defs>
<clipPath id="clip0_59_2181">
<rect width="16" height="16" fill="white" transform="translate(0.5)" />
</clipPath>
</defs>
</svg>
